
        <svg xmlns="http://www.w3.org/2000/svg" xmlns:xlink="http://www.w3.org/1999/xlink" version="1.1" width="3162.1621621621625" height="548.1449958963909" viewBox="0 0 3162.1621621621625 548.1449958963909">
			
			<g transform="scale(8.108108108108109) translate(10, 10)">
				<defs id="SvgjsDefs1021"/><g id="SvgjsG1022" featureKey="odWo6G-0" transform="matrix(0.7777777910232544,0,0,0.7777777910232544,-3.888888888888889,-14.633332146538628)" fill="#000"><path xmlns="http://www.w3.org/2000/svg" stroke="none" d=" M 92 48.6 Q 91.05 47.45 90.1 46.4 89.15 45.4 88.15 44.5 87.2 43.65 86.15 42.85 85.2 42.1 84.1 41.4 82.95 40.7 81.65 40.1 80.45 39.5 79.15 39.1 77.9 38.7 76.6 38.45 75.3 38.2 73.95 38.15 72.75 38.05 71.5 38.15 70.25 38.25 69.05 38.5 67.85 38.7 66.65 39.05 65.35 39.4 64.05 39.8 62.85 40.2 61.65 40.7 60.35 41.2 59.1 41.75 57.95 42.2 56.85 42.7 55.65 43.25 54.5 43.85 53.5 44.3 52.55 44.85 51.5 45.35 50.5 45.9 49.4 46.45 48.4 47 47.35 47.55 46.4 48.15 45.5 48.7 44.65 49.2 43.75 49.7 42.85 50.2 41.95 50.7 41.05 51.15 40.2 51.6 39.3 52.05 38.4 52.5 37.5 52.95 36.65 53.35 35.75 53.75 34.85 54.15 33.95 54.55 33 54.95 32.1 55.35 30.85 55.9 29.6 56.35 28.4 56.8 27.2 57.15 26.25 57.45 25.3 57.75 23.95 58.1 22.55 58.4 21.2 58.65 19.8 58.8 18.5 58.95 17.2 59 15.9 59.05 14.6 59 13.55 58.95 12.5 58.8 11.3 58.6 10.1 58.35 8.7 58 7.3 57.55 6.15 57.15 5 56.6 5.2 56.75 5.4 56.95 6.55 57.9 7.85 58.65 9.2 59.4 10.65 60 12.2 60.6 13.8 61 15.2 61.3 16.7 61.55 18.2 61.75 19.8 61.85 21.3 61.95 22.8 61.85 24.4 61.75 26 61.55 27.15 61.45 28.25 61.25 29.45 61.05 30.65 60.9 32.6 60.55 34.5 60.1 35.85 59.85 37.15 59.5 38.25 59.25 39.25 59 40.35 58.75 41.4 58.45 43.15 57.95 44.9 57.45 46.6 56.95 48.25 56.5 49.9 56.05 51.5 55.65 52.55 55.35 53.6 55.1 54.6 54.85 55.65 54.55 56.6 54.3 57.6 54.05 58.6 53.85 59.55 53.6 60.5 53.4 61.45 53.2 62.35 53 63.25 52.8 64.15 52.6 65 52.4 65.9 52.25 66.75 52.05 67.95 51.8 69.2 51.6 70.4 51.4 71.55 51.2 72.3 51.1 73.1 50.95 74.55 50.75 76.05 50.65 77.15 50.55 78.25 50.5 79.7 50.45 81.15 50.5 82.25 50.5 83.3 50.55 84.75 50.65 86.15 50.8 87.55 51 88.95 51.25 90.3 51.45 91.65 51.8 93.35 52.2 95 52.75 94.3 51.65 93.5 50.6 92.75 49.55 92 48.6 Z"/></g><g id="SvgjsG1023" featureKey="VGK2BT-0" transform="matrix(2.4807024002075195,0,0,2.4807024002075195,89.03029247287175,-14.123259857318997)" fill="#000"><path d="M10.01 5.888999999999999 l0 2.5781 l-3.3496 0 l0 11.533 l-2.9004 0 l0 -11.533 l-3.3691 0 l0 -2.5781 l9.6191 0 z M18.427690625 9.961 l2.8809 0 l-6.1914 14.766 l-2.8516 0 l2.2949 -5.1367 l-4.1309 -9.6289 l3.0664 0 l2.3926 6.6016 z M28.681690625 9.766 c2.6465 0 4.834 1.9434 4.834 5.2344 s-2.1875 5.2344 -4.834 5.2344 c-1.3086 0 -2.4805 -0.50781 -3.0762 -1.4258 l0 6.0742 l-2.8125 0 l0 -14.922 l2.666 0 l0.078125 1.3477 c0.55664 -0.99609 1.7773 -1.543 3.1445 -1.543 z M28.046890625 17.9004 c1.4746 0 2.6563 -1.0742 2.6563 -2.9004 s-1.1816 -2.9004 -2.6563 -2.9004 c-1.5039 0 -2.6758 1.1426 -2.6758 2.9004 s1.1719 2.9004 2.6758 2.9004 z M45.077687499999996 14.834 l-0.029297 0.67383 l-7.4414 0 c0.11719 1.6699 1.2305 2.4707 2.5684 2.4707 c1.0059 0 1.7871 -0.46875 2.168 -1.3574 l2.5781 0.38086 c-0.66406 2.0313 -2.4707 3.1934 -4.7266 3.1934 c-3.2422 0 -5.3613 -1.9141 -5.3613 -5.2148 s2.1777 -5.2344 5.2734 -5.2344 c2.8418 0 4.9609 1.5723 4.9707 5.0879 z M40.1269875 11.7383 c-1.2793 0 -2.168 0.5957 -2.4414 1.9336 l4.6094 0 c-0.14648 -1.2793 -1.0156 -1.9336 -2.168 -1.9336 z M52.27541875 20.19531 c-3.0273 0 -5.3906 -1.4551 -5.8203 -4.1016 l3.0273 -0.69336 c0.19531 1.582 1.3574 2.4023 2.9102 2.4023 c1.1914 0 2.1387 -0.52734 2.1289 -1.7188 c-0.0097656 -1.3281 -1.5723 -1.748 -3.291 -2.2754 c-2.0703 -0.64453 -4.2871 -1.4063 -4.2871 -4.0039 c0 -2.627 2.1484 -4.1113 4.9805 -4.1113 c2.4805 0 4.9805 1.0059 5.5469 3.7109 l-2.832 0.70313 c-0.26367 -1.4063 -1.2109 -2.0215 -2.5391 -2.0215 c-1.1816 0 -2.1875 0.48828 -2.1875 1.6504 c0 1.084 1.3867 1.4453 2.9883 1.9238 c2.1289 0.64453 4.6484 1.4648 4.6484 4.2773 c0 2.998 -2.5098 4.2578 -5.2734 4.2578 z M63.623034375 20 c-1.9531 0 -3.0664 -1.1328 -3.0664 -3.1348 l0 -4.7461 l-1.9727 0 l0 -2.1582 l0.63477 0 c1.0645 0 1.6504 -0.41016 1.6504 -1.9141 l0 -1.3281 l2.5391 0 l0 3.2422 l2.0703 0 l0 2.1582 l-2.0703 0 l0 4.4434 c0 0.89844 0.43945 1.2988 1.1621 1.2988 l0.9082 0 l0 2.1387 l-1.8555 0 z M70.351571875 11.5527 c0.50781 -0.88867 1.8262 -1.709 3.2813 -1.709 l0 2.5098 c-2.1289 0 -3.1445 0.625 -3.1445 2.7539 l0 4.8926 l-2.832 0 l0 -10.039 l2.6953 0 l0 1.5918 z M84.726125 14.834 l-0.029297 0.67383 l-7.4414 0 c0.11719 1.6699 1.2305 2.4707 2.5684 2.4707 c1.0059 0 1.7871 -0.46875 2.168 -1.3574 l2.5781 0.38086 c-0.66406 2.0313 -2.4707 3.1934 -4.7266 3.1934 c-3.2422 0 -5.3613 -1.9141 -5.3613 -5.2148 s2.1777 -5.2344 5.2734 -5.2344 c2.8418 0 4.9609 1.5723 4.9707 5.0879 z M79.775425 11.7383 c-1.2793 0 -2.168 0.5957 -2.4414 1.9336 l4.6094 0 c-0.14648 -1.2793 -1.0156 -1.9336 -2.168 -1.9336 z M95.09765625 17.2754 c0 1.2305 0.11719 2.0117 0.24414 2.4512 l0 0.27344 l-2.627 0 l-0.22461 -1.0938 c-0.75195 0.9082 -2.0508 1.2891 -3.2227 1.2891 c-1.582 0 -3.125 -0.70313 -3.125 -2.793 c0 -2.0801 1.5527 -2.7832 3.6523 -3.2422 l1.6504 -0.37109 c0.71289 -0.16602 0.9668 -0.41016 0.9668 -0.82031 c0 -0.98633 -0.89844 -1.2598 -1.6895 -1.2598 c-1.0156 0 -1.7871 0.40039 -1.9629 1.5332 l-2.4902 -0.44922 c0.41992 -2.0801 1.9434 -3.0273 4.6094 -3.0273 c2.0117 0 4.2188 0.5957 4.2188 3.623 l0 3.8867 z M90.14645625 18.291 c1.3379 0 2.4121 -0.88867 2.4121 -2.8809 l-2.3828 0.67383 c-0.78125 0.18555 -1.3477 0.45898 -1.3477 1.1328 c0 0.72266 0.5957 1.0742 1.3184 1.0742 z M109.726953125 9.766 c2.1484 0 3.5352 1.0938 3.5352 3.1543 l0 7.0801 l-2.8125 0 l0 -6.2793 c0 -1.1816 -0.74219 -1.6992 -1.582 -1.6992 c-1.0059 0 -1.8945 0.57617 -1.8945 2.3145 l0 5.6641 l-2.8418 0 l0 -6.25 c0 -1.2012 -0.72266 -1.7285 -1.6113 -1.7285 c-0.97656 0 -1.8848 0.57617 -1.8848 2.4609 l0 5.5176 l-2.8027 0 l0 -10.039 l2.8027 0 l0 1.1816 c0.66406 -0.88867 1.6797 -1.377 2.9102 -1.377 c1.4551 0 2.5488 0.52734 3.0762 1.5039 c0.70313 -1.0059 1.7773 -1.5039 3.1055 -1.5039 z"/></g>
			</g>
		</svg>
	